# xmcd
#
# Track frame offsets:
#	150
#	15582
#	29933
#	41775
#	50787
#	62133
#	80474
#	98714
#	109278
#	128310
#	141202
#
# Disc length: 2269 seconds
# Revision: 1
# Processed by: cddbd v1.5.2PL0 Copyright (c) Steve Scherf et al.
# Submitted via: dBpowerAMP V12.0
#
DISCID=9908db0b
DTITLE=The Floors - Dead Beat
DYEAR=2012
DGENRE=Blues
TTITLE0=You Got to Move
TTITLE1=Bottle up 'n' go
TTITLE2=Dead Beat
TTITLE3=Junkyard Machine
TTITLE4=Pick up Your Bones
TTITLE5=Dog Money
TTITLE6=The Coffee Table
TTITLE7=Aileen 
TTITLE8=Come Stand in The Fire
TTITLE9=Bo Creek
TTITLE10=Feed me to The Pigs
EXTD=
EXTT0=
EXTT1=
EXTT2=
EXTT3=
EXTT4=
EXTT5=
EXTT6=
EXTT7=
EXTT8=
EXTT9=
EXTT10=
PLAYORDER=
